# File created by Blade
# Date/Time:  Wed Jan 21 15:15:22 2015
# Frame Rate: 120.000 fps
#------------------------------------------------------
:FULLY-SPECIFIED
:DEGREES
179
root 18.750459 35.795270 -25.902450 214.395391 -87.679199 -213.681611
Spine -0.785489 3.945261 -4.033807
Head 5.813900 -2.742803 1.733828
LeftShoulder -7.712623 -26.123218 -4.970861
LeftArm -12.704611 1.934232 -67.351883
LeftForeArm 5.448359 -0.000000 0.044841
LeftHand -3.135502 -0.000000 -5.919427
LeftHandThumb1 -26.253704 0.000000 33.147579
RightShoulder -3.306396 -7.573982 6.966176
RightArm 21.125989 10.653679 70.580027
RightForeArm -28.446826 0.000000 8.361485
RightHand -1.826543 0.000000 4.349016
RightHandThumb1 -24.326973 -0.000000 -32.862282
LeftUpLeg -12.857605 5.428901 -2.947570
LeftLeg 25.704906 -0.000000 -0.000000
LeftFoot -30.829441 26.875608 -15.917421
LeftToeBase 19.590656 -0.000000 -0.000000
RightUpLeg -3.067035 -4.102462 2.966957
RightLeg 8.189603 -0.000000 -0.000000
RightFoot -23.335784 -25.725039 12.490084
RightToeBase 21.994577 -0.000000 -0.000000
180
root 18.730642 35.797118 -25.895200 217.417440 -87.816303 -216.700554
Spine -0.923978 3.861910 -4.040289
Head 5.939168 -2.816407 1.786302
LeftShoulder -7.715015 -25.997432 -5.017741
LeftArm -13.018738 1.996566 -67.710105
LeftForeArm 5.509297 -0.000000 0.062701
LeftHand -3.096804 -0.000000 -6.181189
LeftHandThumb1 -26.253704 0.000000 33.147579
RightShoulder -3.405886 -7.708197 7.118724
RightArm 20.688388 10.635263 70.764002
RightForeArm -28.127042 -0.000000 8.344716
RightHand -1.606696 -0.000000 4.771648
RightHandThumb1 -24.326973 -0.000000 -32.862282
LeftUpLeg -12.619722 5.103826 -3.217354
LeftLeg 25.336237 -0.000000 -0.000000
LeftFoot -30.905741 26.653631 -15.945367
LeftToeBase 19.658263 -0.000000 -0.000000
RightUpLeg -2.962787 -4.149270 2.931900
RightLeg 8.067981 -0.000000 -0.000000
RightFoot -23.379646 -25.810110 12.573737
RightToeBase 22.024310 -0.000000 -0.000000
181
root 18.710658 35.798166 -25.886763 220.882475 -87.965834 -220.161466
Spine -1.062906 3.757323 -4.036933
Head 6.065454 -2.885248 1.831274
LeftShoulder -7.714367 -25.849957 -5.057444
LeftArm -13.317326 2.140383 -68.057134
LeftForeArm 5.557033 0.000000 0.133418
LeftHand -3.164614 -0.000000 -6.398915
LeftHandThumb1 -26.253704 0.000000 33.147579
RightShoulder -3.488750 -7.842829 7.252391
RightArm 20.159800 10.680888 70.962891
RightForeArm -27.821393 0.000000 8.485174
RightHand -1.453911 -0.000000 5.158555
RightHandThumb1 -24.326973 -0.000000 -32.862282
LeftUpLeg -12.342186 4.724758 -3.452193
LeftLeg 24.901740 -0.000000 -0.000000
LeftFoot -30.957775 26.383611 -15.921941
LeftToeBase 19.741581 -0.000000 -0.000000
RightUpLeg -2.857742 -4.233092 2.906538
RightLeg 7.949683 -0.000000 -0.000000
RightFoot -23.413312 -25.883178 12.644958
RightToeBase 22.129004 -0.000000 -0.000000
182
root 18.688574 35.799787 -25.876066 225.363238 -88.121160 -224.639301
Spine -1.213435 3.632824 -4.050139
Head 6.210446 -2.991400 1.892660
LeftShoulder -7.716805 -25.668777 -5.073808
LeftArm -13.562725 2.313581 -68.418399
LeftForeArm 5.684255 -0.000000 0.199365
LeftHand -3.137055 0.000000 -6.675488
LeftHandThumb1 -26.253704 0.000000 33.147579
RightShoulder -3.573508 -7.965242 7.401594
RightArm 19.579718 10.464438 71.000581
RightForeArm -27.335151 -0.000000 8.640719
RightHand -1.358559 -0.000000 5.474636
RightHandThumb1 -24.326973 -0.000000 -32.862282
LeftUpLeg -12.043779 4.289014 -3.678661
LeftLeg 24.411622 -0.000000 -0.000000
LeftFoot -30.954746 26.189370 -15.934519
LeftToeBase 19.764976 -0.000000 -0.000000
RightUpLeg -2.735922 -4.329054 2.874900
RightLeg 7.808703 -0.000000 -0.000000
RightFoot -23.424603 -25.955954 12.702290
RightToeBase 22.112089 -0.000000 -0.000000
183
root 18.662316 35.801050 -25.865037 229.350514 -88.236602 -228.634186
Spine -1.368552 3.555319 -4.060173
Head 6.374705 -3.104413 1.932679
LeftShoulder -7.715988 -25.485027 -5.085569
LeftArm -13.795655 2.431108 -68.721385
LeftForeArm 5.944741 -0.000000 0.242449
LeftHand -3.091275 -0.000000 -6.926638
LeftHandThumb1 -26.253704 0.000000 33.147579
RightShoulder -3.694750 -8.201354 7.523863
RightArm 19.136930 10.503420 71.171297
RightForeArm -26.968734 -0.000000 8.812434
RightHand -1.306859 -0.000000 5.976824
RightHandThumb1 -24.326973 -0.000000 -32.862282
LeftUpLeg -11.693072 3.869942 -3.868393
LeftLeg 23.879118 -0.000000 -0.000000
LeftFoot -30.962146 25.936391 -15.882267
LeftToeBase 20.130546 -0.000000 -0.000000
RightUpLeg -2.604415 -4.370967 2.848250
RightLeg 7.677094 -0.000000 -0.000000
RightFoot -23.465313 -26.053046 12.796390
RightToeBase 22.189681 -0.000000 -0.000000
184
root 18.637363 35.801401 -25.852451 233.404912 -88.358090 -232.674414
Spine -1.552082 3.469566 -4.041969
Head 6.532656 -3.200416 1.988000
LeftShoulder -7.721190 -25.317798 -5.083676
LeftArm -14.032443 2.527624 -69.004709
LeftForeArm 6.094478 -0.000000 0.292554
LeftHand -2.983710 -0.000000 -6.966742
LeftHandThumb1 -26.253704 0.000000 33.147579
RightShoulder -3.836116 -8.456698 7.629885
RightArm 18.663835 10.061510 71.180151
RightForeArm -26.597057 -0.000000 9.010731
RightHand -1.394756 -0.000000 6.233681
RightHandThumb1 -24.326973 -0.000000 -32.862282
LeftUpLeg -11.327956 3.430418 -4.025218
LeftLeg 23.269195 -0.000000 -0.000000
LeftFoot -30.938658 25.681326 -15.911977
LeftToeBase 20.135798 -0.000000 -0.000000
RightUpLeg -2.499784 -4.451912 2.840984
RightLeg 7.552988 -0.000000 -0.000000
RightFoot -23.479692 -26.101622 12.845830
RightToeBase 22.206255 -0.000000 -0.000000
185
root 18.608737 35.800746 -25.838982 237.021371 -88.462770 -236.269898
Spine -1.754214 3.391195 -4.026264
Head 6.712585 -3.319766 2.043245
LeftShoulder -7.739807 -25.113545 -5.069357
LeftArm -14.243960 2.552337 -69.239722
LeftForeArm 6.420011 -0.000000 0.349163
LeftHand -2.908311 0.000000 -7.381272
LeftHandThumb1 -26.253704 0.000000 33.147579
RightShoulder -3.973695 -8.734760 7.719692
RightArm 18.218970 9.592162 71.186009
RightForeArm -26.034290 -0.000000 9.234157
RightHand -1.469612 -0.000000 6.527370
RightHandThumb1 -24.326973 -0.000000 -32.862282
LeftUpLeg -10.954569 3.012160 -4.155345
LeftLeg 22.646574 -0.000000 -0.000000
LeftFoot -30.880542 25.470841 -15.852293
LeftToeBase 20.308795 -0.000000 -0.000000
RightUpLeg -2.394233 -4.495149 2.844620
RightLeg 7.417279 -0.000000 -0.000000
RightFoot -23.507706 -26.150928 12.942448
RightToeBase 22.239789 -0.000000 -0.000000
186
root 18.582681 35.798880 -25.822527 240.718427 -88.557500 -239.936292
Spine -1.961509 3.318164 -3.999422
Head 6.884162 -3.384193 2.105932
LeftShoulder -7.735432 -24.954936 -5.051337
LeftArm -14.534722 2.698627 -69.486024
LeftForeArm 6.410300 0.000000 0.479230
LeftHand -2.844986 -0.000000 -7.307716
LeftHandThumb1 -26.253704 0.000000 33.147579
RightShoulder -4.077151 -8.982085 7.762168
RightArm 17.703166 8.892998 71.124750
RightForeArm -25.398454 -0.000000 9.480751
RightHand -1.476994 -0.000000 6.580444
RightHandThumb1 -24.326973 -0.000000 -32.862282
LeftUpLeg -10.573330 2.548494 -4.273539
LeftLeg 21.975653 -0.000000 -0.000000
LeftFoot -30.786345 25.390288 -15.788849
LeftToeBase 20.142524 -0.000000 -0.000000
RightUpLeg -2.331807 -4.395338 2.852006
RightLeg 7.344372 -0.000000 -0.000000
RightFoot -23.587283 -26.321546 13.087408
RightToeBase 22.127258 -0.000000 -0.000000
187
root 18.559298 35.795148 -25.806689 242.733178 -88.628669 -241.893099
Spine -2.201444 3.290749 -3.968907
Head 7.047734 -3.463479 2.156182
LeftShoulder -7.695993 -24.885934 -5.051397
LeftArm -15.006497 3.495824 -69.872805
LeftForeArm 5.809815 -0.000000 0.810392
LeftHand -2.974999 -0.000000 -7.379522
LeftHandThumb1 -26.253704 0.000000 33.147579
RightShoulder -4.178949 -9.234672 7.779383
RightArm 17.150772 8.048205 71.050319
RightForeArm -24.942491 -0.000000 9.823300
RightHand -1.522486 -0.000000 6.549305
RightHandThumb1 -24.326973 -0.000000 -32.862282
LeftUpLeg -10.222282 2.194676 -4.367516
LeftLeg 21.302010 -0.000000 -0.000000
LeftFoot -30.720659 25.260040 -15.709784
LeftToeBase 20.271802 -0.000000 -0.000000
RightUpLeg -2.318044 -4.433187 2.863498
RightLeg 7.295010 -0.000000 -0.000000
RightFoot -23.624827 -26.328290 13.098727
RightToeBase 22.202495 -0.000000 -0.000000
188
root 18.533998 35.790934 -25.785269 244.466456 -88.688339 -243.564531
Spine -2.454625 3.263402 -3.908583
Head 7.234393 -3.432039 2.206443
LeftShoulder -7.738982 -24.674202 -5.045602
LeftArm -15.197658 3.796238 -70.118650
LeftForeArm 5.549655 -0.000000 0.884851
LeftHand -2.881272 0.000000 -7.292717
LeftHandThumb1 -26.253704 0.000000 33.147579
RightShoulder -4.304683 -9.550155 7.757137
RightArm 16.743017 7.343792 71.079484
RightForeArm -24.996084 -0.000000 10.046487
RightHand -1.426663 -0.000000 6.413002
RightHandThumb1 -24.326973 -0.000000 -32.862282
LeftUpLeg -9.840113 1.781534 -4.462614
LeftLeg 20.566159 -0.000000 -0.000000
LeftFoot -30.623315 25.242874 -15.625105
LeftToeBase 20.420426 -0.000000 -0.000000
RightUpLeg -2.324805 -4.372014 2.860786
RightLeg 7.287172 -0.000000 -0.000000
RightFoot -23.700163 -26.382869 13.188151
RightToeBase 22.227496 -0.000000 -0.000000
189
root 18.501329 35.786971 -25.765170 248.157975 -88.765653 -247.181096
Spine -2.747568 3.212446 -3.889438
Head 7.444628 -3.577963 2.199962
LeftShoulder -7.768594 -24.451559 -5.002711
LeftArm -15.407208 3.940044 -70.317666
LeftForeArm 5.375715 -0.000000 0.993924
LeftHand -2.816643 0.000000 -7.142764
LeftHandThumb1 -26.253704 0.000000 33.147579
RightShoulder -4.459325 -9.893682 7.796742
RightArm 16.355559 6.702787 71.085856
RightForeArm -25.052800 -0.000000 10.263663
RightHand -1.186668 -0.000000 6.212829
RightHandThumb1 -24.326973 -0.000000 -32.862282
LeftUpLeg -9.453311 1.349303 -4.543540
LeftLeg 19.797196 -0.000000 -0.000000
LeftFoot -30.451261 25.281397 -15.484451
LeftToeBase 20.383366 -0.000000 -0.000000
RightUpLeg -2.303540 -4.386268 2.863898
RightLeg 7.226967 -0.000000 -0.000000
RightFoot -23.773029 -26.416281 13.258069
RightToeBase 22.307587 -0.000000 -0.000000
